name rise38.3101peak57.3503fall81.6963.mot
datacolumns 19
datarows 11
range 9.85830100000000 9.87496800000000
endheader
time	ground_force1_vx	ground_force1_vy	ground_force1_vz	ground_force1_px	ground_force1_py	ground_force1_pz	ground_force2_vx	ground_force2_vy	ground_force2_vz	ground_force2_px	ground_force2_py	ground_force2_pz	ground_torque1_x	ground_torque1_y	ground_torque1_z	ground_torque2_x	ground_torque2_y	ground_torque2_z	
9.85830100000000	-6.62629700000000	45.96489900000000	-13.11999300000000	0.33371700000000	0.00000000000000	0.06652000000000	-44.79946400000000	789.60124900000005	-54.78594400000000	0.14512500000000	0.00000000000000	-0.11197800000000	0.00000000000000	-9.64313200000000	0.00000000000000	0.00000000000000	-24.37646800000000	0.00000000000000	
9.85999000000000	-7.06206600000000	52.64584000000000	-14.45570400000000	0.33915300000000	0.00000000000000	0.06754300000000	-45.29712400000000	786.76776299999995	-54.34414800000000	0.14454800000000	0.00000000000000	-0.11187900000000	0.00000000000000	-10.72535800000000	0.00000000000000	0.00000000000000	-24.31104900000000	0.00000000000000	
9.86163100000000	-7.35635700000000	59.28668200000000	-15.63208400000000	0.34422400000000	0.00000000000000	0.06848200000000	-45.80649400000000	783.82466999999997	-53.87887400000000	0.14398500000000	0.00000000000000	-0.11177400000000	0.00000000000000	-11.70585400000000	0.00000000000000	0.00000000000000	-24.24586900000000	0.00000000000000	
9.86330200000000	-7.49861000000000	65.82146600000000	-16.62876100000000	0.34897100000000	0.00000000000000	0.06935100000000	-46.32740100000000	780.77187600000002	-53.39020200000000	0.14343800000000	0.00000000000000	-0.11166500000000	0.00000000000000	-12.56708900000000	0.00000000000000	0.00000000000000	-24.18092900000000	0.00000000000000	
9.86496400000000	-7.48503600000000	72.20877100000000	-17.43581200000000	0.35342900000000	0.00000000000000	0.07015800000000	-46.85960500000000	777.60925199999997	-52.87823900000000	0.14290500000000	0.00000000000000	-0.11155100000000	0.00000000000000	-13.29920900000000	0.00000000000000	0.00000000000000	-24.11621300000000	0.00000000000000	
9.86663100000000	-7.31798300000000	78.43130900000000	-18.05303600000000	0.35762700000000	0.00000000000000	0.07091200000000	-47.40279600000000	774.33662900000002	-52.34311900000000	0.14238600000000	0.00000000000000	-0.11143200000000	0.00000000000000	-13.89969000000000	0.00000000000000	0.00000000000000	-24.05169000000000	0.00000000000000	
9.86830400000000	-7.00491300000000	84.49359300000000	-18.48854900000000	0.36158800000000	0.00000000000000	0.07162000000000	-47.95659800000000	770.95379000000003	-51.78500200000000	0.14188300000000	0.00000000000000	-0.11130900000000	0.00000000000000	-14.37245000000000	0.00000000000000	0.00000000000000	-23.98730900000000	0.00000000000000	
9.86996400000000	-6.55714300000000	90.41821700000000	-18.75694700000000	0.36533100000000	0.00000000000000	0.07228600000000	-48.52056000000000	767.46046999999999	-51.20407900000000	0.14139400000000	0.00000000000000	-0.11118000000000	0.00000000000000	-14.72658900000000	0.00000000000000	0.00000000000000	-23.92300300000000	0.00000000000000	
9.87163600000000	-5.98848500000000	96.24129900000000	-18.87725500000000	0.36887500000000	0.00000000000000	0.07291600000000	-49.09415800000000	763.85635400000001	-50.60057000000000	0.14091900000000	0.00000000000000	-0.11104700000000	0.00000000000000	-14.97490300000000	0.00000000000000	0.00000000000000	-23.85868600000000	0.00000000000000	
9.87330200000000	-5.31392800000000	102.00760800000000	-18.87087200000000	0.37223300000000	0.00000000000000	0.07351400000000	-49.67679600000000	760.14107300000001	-49.97472300000000	0.14045800000000	0.00000000000000	-0.11091000000000	0.00000000000000	-15.13236100000000	0.00000000000000	0.00000000000000	-23.79425600000000	0.00000000000000	
9.87496800000000	-4.54845000000000	107.76581400000001	-18.75968200000000	0.37541800000000	0.00000000000000	0.07408300000000	-50.26780000000000	756.31420400000002	-49.32682100000000	0.14001100000000	0.00000000000000	-0.11076700000000	0.00000000000000	-15.21466100000000	0.00000000000000	0.00000000000000	-23.72959400000000	0.00000000000000	
